<?xml version="1.0" encoding="UTF-8" standalone="no"?>
<!-- Created with Inkscape (http://www.inkscape.org/) -->

<svg
   version="1.1"
   id="svg131"
   xml:space="preserve"
   width="200"
   height="120"
   viewBox="30 0 170 90"
   xmlns:xlink="http://www.w3.org/1999/xlink"
   xmlns="http://www.w3.org/2000/svg"
   xmlns:svg="http://www.w3.org/2000/svg">
  <style>
    path { fill: #1a1c1e; }
    @media (prefers-color-scheme: dark) {
      path { fill: #f8f9fb; }
    }
  </style><g
     id="layer1"><g
       aria-label="JSON"
       id="text31765"
       style="font-size:40px;line-height:1;letter-spacing:-2.8px;white-space:pre;shape-inside:url(#rect31767)"><path
         d="m 73.568359,10.435547 h 3.945313 v 27.128906 q 0,5.273438 -2.011719,7.65625 -1.992187,2.382813 -6.425781,2.382813 h -1.503906 v -3.320313 h 1.230468 q 2.617188,0 3.691407,-1.464844 1.074218,-1.464843 1.074218,-5.253906 z"
         id="path197644" /><path
         d="m 100.0457,11.392578 v 3.847656 q -2.246091,-1.074218 -4.238278,-1.601562 -1.992188,-0.527344 -3.847657,-0.527344 -3.222656,0 -4.980468,1.25 -1.738282,1.25 -1.738282,3.554688 0,1.933593 1.152344,2.929687 1.171875,0.976563 4.414063,1.582031 l 2.382812,0.488282 q 4.414063,0.839843 6.503906,2.96875 2.10938,2.109375 2.10938,5.664062 0,4.238281 -2.851567,6.425781 -2.832031,2.1875 -8.320313,2.1875 -2.070312,0 -4.414062,-0.46875 -2.324219,-0.46875 -4.824219,-1.386718 v -4.0625 q 2.402344,1.347656 4.707031,2.03125 2.304688,0.683593 4.53125,0.683593 3.378907,0 5.214844,-1.328125 1.835938,-1.328125 1.835938,-3.789062 0,-2.148438 -1.328125,-3.359375 -1.308594,-1.210938 -4.316407,-1.816406 l -2.402343,-0.46875 q -4.414063,-0.878907 -6.386719,-2.753907 -1.972656,-1.875 -1.972656,-5.214843 0,-3.867188 2.714843,-6.09375 2.734375,-2.2265629 7.519532,-2.2265629 2.050781,0 4.179687,0.3710939 2.128906,0.371094 4.355466,1.113281 z"
         id="path197646" /><path
         d="m 116.9918,13.111328 q -4.29688,0 -6.83594,3.203125 -2.51953,3.203125 -2.51953,8.730469 0,5.507812 2.51953,8.710937 2.53906,3.203125 6.83594,3.203125 4.29687,0 6.79687,-3.203125 2.51953,-3.203125 2.51953,-8.710937 0,-5.527344 -2.51953,-8.730469 -2.5,-3.203125 -6.79687,-3.203125 z m 0,-3.2031249 q 6.13281,0 9.80468,4.1210939 3.67188,4.101562 3.67188,11.015625 0,6.894531 -3.67188,11.015625 -3.67187,4.101562 -9.80468,4.101562 -6.15235,0 -9.84375,-4.101562 -3.67188,-4.101563 -3.67188,-11.015625 0,-6.914063 3.67188,-11.015625 3.6914,-4.1210939 9.84375,-4.1210939 z"
         id="path197648" /><path
         d="m 133.84023,10.435547 h 5.3125 l 12.92969,24.394531 V 10.435547 h 3.82813 v 29.160156 h -5.3125 L 137.66836,15.201172 v 24.394531 h -3.82813 z"
         id="path197650" /></g></g><g
     id="layer2"><g
       aria-label="tools"
       id="text40511"
       style="font-size:40px;line-height:1.2;letter-spacing:-1.49px;word-spacing:1.15px"><path
         d="m 77.328949,52.423347 v 6.210938 h 7.402344 v 2.792969 h -7.402344 v 11.875 q 0,2.675781 0.722656,3.4375 0.742188,0.761718 2.988281,0.761718 h 3.691407 v 3.007813 h -3.691407 q -4.160156,0 -5.742187,-1.542969 -1.582031,-1.5625 -1.582031,-5.664062 v -11.875 h -2.636719 v -2.792969 h 2.636719 v -6.210938 z"
         id="path197692" /><path
         d="m 96.444418,61.153816 q -2.890625,0 -4.570313,2.265625 -1.679687,2.246094 -1.679687,6.171875 0,3.925781 1.660156,6.191406 1.679688,2.246094 4.589844,2.246094 2.871094,0 4.550782,-2.265625 1.67969,-2.265625 1.67969,-6.171875 0,-3.886719 -1.67969,-6.152344 -1.679688,-2.285156 -4.550782,-2.285156 z m 0,-3.046875 q 4.687502,0 7.363282,3.046875 2.67578,3.046875 2.67578,8.4375 0,5.371094 -2.67578,8.4375 -2.67578,3.046875 -7.363282,3.046875 -4.707031,0 -7.382813,-3.046875 -2.65625,-3.066406 -2.65625,-8.4375 0,-5.390625 2.65625,-8.4375 2.675782,-3.046875 7.382813,-3.046875 z"
         id="path197694" /><path
         d="m 119.42707,61.153816 q -2.89062,0 -4.57031,2.265625 -1.67969,2.246094 -1.67969,6.171875 0,3.925781 1.66016,6.191406 1.67969,2.246094 4.58984,2.246094 2.8711,0 4.55079,-2.265625 1.67968,-2.265625 1.67968,-6.171875 0,-3.886719 -1.67968,-6.152344 -1.67969,-2.285156 -4.55079,-2.285156 z m 0,-3.046875 q 4.6875,0 7.36329,3.046875 2.67578,3.046875 2.67578,8.4375 0,5.371094 -2.67578,8.4375 -2.67579,3.046875 -7.36329,3.046875 -4.70703,0 -7.38281,-3.046875 -2.65625,-3.066406 -2.65625,-8.4375 0,-5.390625 2.65625,-8.4375 2.67578,-3.046875 7.38281,-3.046875 z"
         id="path197696" /><path
         d="m 133.93317,50.11866 h 3.59375 v 30.390625 h -3.59375 z"
         id="path197698" /><path
         d="m 157.50176,59.278816 v 3.398438 q -1.52344,-0.78125 -3.16406,-1.171875 -1.64063,-0.390625 -3.39844,-0.390625 -2.67578,0 -4.02344,0.820312 -1.32812,0.820313 -1.32812,2.460938 0,1.25 0.95703,1.972656 0.95703,0.703125 3.84766,1.347656 l 1.23047,0.273438 q 3.82812,0.820312 5.42968,2.324218 1.6211,1.484375 1.6211,4.160157 0,3.046875 -2.42188,4.824218 -2.40234,1.777344 -6.62109,1.777344 -1.75781,0 -3.67188,-0.351562 -1.89453,-0.332032 -4.0039,-1.015625 v -3.710938 q 1.99218,1.035156 3.92578,1.5625 1.93359,0.507813 3.82812,0.507813 2.53907,0 3.90625,-0.859375 1.36719,-0.878907 1.36719,-2.460938 0,-1.464844 -0.99609,-2.246094 -0.97657,-0.78125 -4.31641,-1.503906 l -1.25,-0.292969 q -3.33984,-0.703125 -4.82422,-2.148437 -1.48437,-1.464844 -1.48437,-4.003906 0,-3.085938 2.1875,-4.765625 2.1875,-1.679688 6.21093,-1.679688 1.99219,0 3.75,0.292969 1.75782,0.292969 3.24219,0.878906 z"
         id="path197700" /></g></g><g
     id="layer3"><g
       aria-label="}"
       transform="translate(-7.3443261,-2.3123369)"
       id="text77687"
       style="font-size:76px;line-height:1.25;white-space:pre;shape-inside:url(#rect77689)"><path
         d="m 170.16016,77.402344 h 2.59765 q 5.19531,0 6.75391,-1.595703 1.5957,-1.595704 1.5957,-6.902344 v -9.203125 q 0,-5.789063 1.66992,-8.423828 1.66993,-2.634766 5.78907,-3.636719 -4.11914,-0.927734 -5.78907,-3.5625 -1.66992,-2.634766 -1.66992,-8.460938 v -9.203125 q 0,-5.269531 -1.5957,-6.865234 -1.5586,-1.632812 -6.75391,-1.632812 h -2.59765 v -5.306641 h 2.33789 q 9.24023,0 12.32031,2.746094 3.11719,2.708984 3.11719,10.910156 v 8.90625 q 0,5.529297 2.0039,7.681641 2.00391,2.115234 7.27344,2.115234 h 2.30078 v 5.306641 h -2.30078 q -5.26953,0 -7.27344,2.152343 -2.0039,2.152344 -2.0039,7.75586 v 8.86914 q 0,8.201172 -3.11719,10.947266 -3.08008,2.746094 -12.32031,2.746094 h -2.33789 z"
         style="fill:#d40000"
         id="path197671" /></g></g><g
     id="layer4"><g
       aria-label="{"
       transform="translate(-9.8375265,-13.891307)"
       id="text100565"
       style="font-size:76px;line-height:1.25;white-space:pre;shape-inside:url(#rect100567)"><path
         d="m 73.355469,89.167969 v 5.34375 h -2.300782 q -9.240234,0 -12.394531,-2.746094 -3.117187,-2.746094 -3.117187,-10.947266 v -8.86914 q 0,-5.603516 -2.003907,-7.75586 -2.003906,-2.152343 -7.273437,-2.152343 h -2.263672 v -5.306641 h 2.263672 q 5.306641,0 7.273437,-2.115234 2.003907,-2.152344 2.003907,-7.681641 v -8.90625 q 0,-8.201172 3.117187,-10.910156 Q 61.814453,24.375 71.054687,24.375 h 2.300782 v 5.306641 h -2.523438 q -5.232422,0 -6.828125,1.632812 -1.595703,1.632813 -1.595703,6.865234 v 9.203125 q 0,5.826172 -1.707031,8.460938 -1.669922,2.634766 -5.751953,3.5625 4.11914,1.001953 5.789062,3.636719 1.669922,2.634765 1.669922,8.423828 v 9.203125 q 0,5.232422 1.595703,6.865234 1.595703,1.632813 6.828125,1.632813 z"
         style="fill:#d40000"
         id="path197623" /></g></g></svg>
